<svg xmlns="http://www.w3.org/2000/svg" xmlns:xlink="http://www.w3.org/1999/xlink" fill="none" version="1.1" width="1024" height="1024" viewBox="0 0 1024 1024"><defs><clipPath id="master_svg0_7_1347"><rect x="0" y="0" width="1024" height="1024" rx="0"/></clipPath></defs><g clip-path="url(#master_svg0_7_1347)"><g><path d="M370.62883226562496,399.3047025L372.999922265625,397.0000155C393.423542265625,376.3376923,425.426942265625,369.6188202,453.714722265625,373.5976715L455.999882265625,374.0000153C474.100712265625,377.1681976,491.957762265625,383.5622105,504.691282265625,397.3203275C505.857182265625,398.6735685,505.857182265625,398.6735685,506.999882265625,400.0000155C514.559872265625,408.6293795,520.725892265625,418.7830045,522.325502265625,430.3551785C522.408082265625,431.1685025,522.4882222656249,431.9579015,522.568302265625,432.7473295L522.819642265625,435.1703645C522.880982265625,435.7924345,522.9404922656249,436.3962245,522.999942265625,437.0000155C528.671202265625,436.9789885,534.342402265625,436.9622345,540.0136122656249,436.9511875C542.321592265625,436.9470675,544.629512265625,436.9425205,546.937442265625,436.9375155C550.3510122656251,436.9248195,553.7645222656249,436.9122465,557.1781022656251,436.9066315L560.402282265625,436.9023595L563.568302265625,436.8867035L566.480162265625,436.8864895C567.987242265625,436.8825535,569.495792265625,436.9068755,570.999942265625,437.0000155C572.134342265625,437.9863125,572.134342265625,437.9863125,572.568172265625,439.6858675L573.197262265625,441.90409850000003L573.9130222656249,444.4144435L574.684022265625,447.1628575C577.627442265625,457.5673675,580.466312265625,467.9990995,583.264222265625,478.4435625C583.800172265625,480.4443225,584.336672265625,482.4449025,584.873782265625,484.4453625C586.2950422656249,489.7359125,587.715272265625,495.02678249999997,589.133732265625,500.3181425C590.598692265625,505.78274250000004,592.065062265625,511.2469225,593.532042265625,516.7109725C596.386842265625,527.3437225,599.239992265625,537.9769625,602.0912522656249,548.6106824999999L602.999942265625,551.9999725C603.999942265625,550.9999725,603.999942265625,550.9999725,604.612242265625,549.0363425L605.310242265625,546.4035325L606.115482265625,543.3887025C606.7166122656249,541.1100125,607.3208022656249,538.8321825,607.9275522656251,536.5550225C608.425412265625,534.6866725,608.923282265625,532.8183325,609.419432265625,530.9495525C610.480222265625,526.9521824999999,611.545472265625,522.9560225,612.6159622656251,518.9612125L613.164492265625,516.9154925L614.2782022656249,512.7626625C615.038822265625,509.9272125,615.799252265625,507.0917025,616.559382265625,504.25613250000004L617.720642265625,499.9238625C618.698242265625,496.2777225,619.675962265625,492.6316725,620.6518522656249,488.9851225C621.629582265625,485.3306425,622.607792265625,481.67634250000003,623.5879522656251,478.0225325C623.966312265625,476.6127125,624.344542265625,475.2028625,624.722592265625,473.7929825C628.010252265625,461.4864955,631.4996922656251,449.2510225,634.999942265625,437.0000155L689.000002265625,437.0000155C688.561522265625,440.0691685,688.212342265625,443.1660005,687.447262265625,446.17042549999996L686.830322265625,448.0390775L686.110962265625,450.2470855L685.316402265625,452.6250155C684.405642265625,455.4019315,683.493102265625,458.1781765,682.573362265625,460.9521635C681.891902265625,463.0068205,681.212462265625,465.0621795,680.534912265625,467.1181795C679.022092265625,471.7165375,677.508182265625,476.31456249999997,675.9898722656251,480.9111525C673.0819122656251,489.7119925,670.187562265625,498.5172625,667.300112265625,507.3248625C655.730282265625,542.6190525,644.125672265625,577.8918725,631.999942265625,612.9999725L573.999942265625,612.9999725C569.1759022656249,598.5966525,564.3597422656251,584.1926525,559.653322265625,569.7504625L558.472592265625,566.1249725C556.485592265625,560.0293225,554.4969522656249,553.9341724999999,552.519532265625,547.8354225C547.601562265625,532.6671425,543.437382265625,516.3888225000001,535.679872265625,502.36136250000004C535.321232265625,501.74972249999996,534.973082265625,501.1560925,534.624942265625,500.5625325C531.5604822656251,495.2563025,528.349972265625,490.3589925,524.062442265625,485.9375125L521.999942265625,484.0000125C512.165652265625,474.7441525,499.742192265625,468.2572175,486.937382265625,464.1250155C481.869692265625,462.5858915,476.943362265625,460.8950955,471.999882265625,459.0000155C471.742432265625,456.6558075,471.468752265625,454.31489550000003,471.177612265625,451.9746245C470.993222265625,450.5040135,470.993222265625,450.5040135,470.812382265625,449.0625155C469.864682265625,440.3881685,468.184752265625,432.6009065,461.312382265625,426.6875155L457.999882265625,425.0000155C452.496342265625,421.8722385,447.488772265625,420.7610015,441.213742265625,420.6298985L438.812382265625,420.6250155C433.190552265625,420.6130825,428.372562265625,421.1414945,422.999942265625,423.0000155C416.800492265625,425.7672275,412.559862265625,429.6553195,409.999922265625,436.0000155C408.67161226562496,441.6540375,408.399612265625,446.6755525,410.999922265625,452.0000155C417.888042265625,462.3321995,417.888042265625,462.3321995,444.083622265625,468.6233065C466.449832265625,473.8581425,490.073002265625,478.7978325,508.214722265625,493.8359525C521.485292265625,506.3168625,526.8197622656251,522.6324125,528.183532265625,540.3905925C528.7215622656249,557.4792225,523.534792265625,576.5184624999999,511.734312265625,589.2616925L509.999882265625,590.9999725C505.881892265625,595.1866125,501.646852265625,598.8907125000001,496.769412265625,602.1757525C472.387142265625,617.2012025,439.110842265625,620.4419225,411.44133226562496,613.9648125C410.271252265625,613.6368125,409.135572265625,613.3183925,407.999922265625,612.9999725C405.489822265625,612.3283425,402.98951226562497,611.6190525,400.499922265625,610.8749725C381.315692265625,604.1291225,364.96425226562496,592.5249325,355.249922265625,574.3749725C349.883252265625,563.0658225,343.87196226562503,545.3838225,347.999922265625,532.9999725L400.999922265625,532.9999725C401.759232265625,538.3151525000001,402.596752265625,543.1669025,404.070232265625,548.2890325C407.190322265625,557.3871725,412.618242265625,561.8566025,421.101482265625,566.0351224999999C431.344172265625,569.9259325,446.802302265625,569.8586124999999,457.031132265625,565.9687225C463.556092265625,562.7580225,468.129332265625,558.8370025,470.999882265625,551.9999725C472.630252265625,545.2016325,472.482302265625,539.1185025,468.796752265625,533.0038724999999C462.021052265625,523.9524225,462.021052265625,523.9524225,431.679812265625,516.6051924999999C419.813732265625,513.7406325,408.01533226562503,510.7374525,396.605392265625,506.35159250000004C380.085342265625,499.6806325,365.520002265625,488.5712725,358.148362265625,471.9531405L356.999922265625,469.0000155C354.290482265625,462.1746975,353.812512265625,455.4808805,353.648112265625,448.2055815C353.512282265625,429.4344025,357.177562265625,413.1415865,370.62883226562496,399.3047025ZM166.999921798625,456.0000155C166.674650195625,433.9900365,172.263471565625,414.7541965,186.999922265625,398.0000155C204.940597265625,380.4362335,229.002212265625,373.10368347,253.687423265625,372.68751526C279.519642265625,373.352005,304.536662265625,380.3871307,322.902272265625,399.5625155C334.37874226562496,412.89826949999997,340.951832265625,431.7792815,340.214772265625,449.4687655L339.999922265625,452.0000155C337.567002265625,483.2032325,317.787002265625,504.9648125,295.081952265625,524.6640325C291.929152265625,527.3933425,288.819782265625,530.1559125,285.777272265625,533.0077825C281.297472265625,537.2102325,276.861952265625,541.4462025,272.144452265625,545.3827825C264.755905265625,551.2980024999999,264.755905265625,551.2980024999999,249.999923265625,564.9999725C279.239912265625,565.3399925,307.619922265625,565.6700125,335.999922265625,565.9999725C341.514422265625,580.7053525,347.641342265625,594.2942224999999,360.187422265625,604.3124725C363.87050226562496,607.0554525,366.669022265625,609.6691025,369.999922265625,612.9999725L168.999921765625,612.9999725L168.999921765625,570.9999725L176.999922265625,563.9999725C180.597746265625,560.8818625,184.175550265625,557.7582725,187.679609265625,554.5351224999999C194.123350265625,548.5778525000001,200.680679265625,542.7896425,207.363205265625,537.1015325C210.46170026562498,534.4643225,213.541000265625,531.8058825,216.613693265625,529.1386425000001C221.604568265625,524.8028225,226.602417265625,520.4757425,231.624679265625,516.1762425C233.396393265625,514.6601224999999,235.167068265625,513.1427325,236.937423265625,511.6249725C237.95808426562502,510.74978250000004,238.978897265625,509.87478250000004,239.999923265625,509.0000325C250.535995265625,500.0133325,261.073288265625,490.7025025,270.144452265625,480.2187625L271.999922265625,478.0000125C274.214152265625,475.4345225,276.201312265625,472.8746825,277.999922265625,470.0000155C283.671952265625,460.1414945,285.024062265625,448.8305515,282.167892265625,437.7812655C279.370502265625,431.1199185,274.898632265625,425.5337985,268.152272265625,422.7109525C257.111160265625,419.0639805,246.872177265625,419.2676545,236.156173265625,423.9648595C235.423050265625,424.3167875,234.711487265625,424.65840149999997,233.999923265625,425.0000155C231.781173265625,425.9414215,231.781173265625,425.9414215,229.999923265625,427.0000155C229.185150265625,429.8829195,229.185150265625,429.8829195,227.87223826562501,431.6914215C224.694381265625,436.1907805,223.274185265625,440.0172885,222.494064265625,445.4570465L222.187423265625,448.0000155C221.950805265625,449.7082065,221.715072265625,451.4165195,221.480392265625,453.1250155L220.999923265625,457.0000155C209.411361265625,457.0623935,197.844465265625,456.9250645,186.26115226562501,456.5727695C184.638136265625,456.52326949999997,183.015089265625,456.4748075,181.392011265625,456.4272615C176.594541565625,456.2880705,171.797178265625,456.14585850000003,166.999921798625,456.0000155ZM704.105472265625,457.7890775L706.000002265625,456.0000155C721.173642265625,440.9058075,739.685302265625,433.0648345,761.250002265625,434.1875155C775.846192265625,435.6341095,787.510192265625,441.2450405,797.062502265625,452.5703275C799.000002265625,455.0000155,799.000002265625,455.0000155,803.000002265625,460.0000155L804.000002265625,437.0000155L857.000002265625,437.0000155C857.021542265625,458.65504450000003,857.039852265625,480.31010249999997,857.050292265625,501.96518249999997C857.055302265625,512.4947225,857.060792265625,523.0243225,857.072022265625,533.5539225C857.082032265625,542.8007525,857.090272265625,552.0476424999999,857.093322265625,561.2945225C857.094542265625,566.1805725,857.095092265625,571.0666225,857.101382265625,575.9526625C857.108342265625,580.6235624999999,857.114262265625,585.2944625,857.113952265625,589.9654224999999C857.113402265625,591.6905825,857.113222265625,593.4156825,857.113522265625,595.1408425L857.113652265625,595.2020425000001C857.119082265625,597.5783725,857.124452265625,599.9545725,857.122802265625,602.3309025L857.120242265625,604.5145525C857.127322265625,614.4165325,855.447452265625,623.5484325,851.937502265625,632.8007525C844.138002265625,650.9396624999999,830.435912265625,662.9783625,812.323972265625,670.4653025C785.923892265625,680.7638825,752.467772265625,680.7163425,726.419192265625,669.3166225C709.435302265625,661.4545625000001,696.303772265625,650.4097025,689.703122265625,632.4765325000001C689.460812265625,631.7247625,689.172672265625,630.9603925,688.881832265625,630.1889325C687.725832265625,627.1228325,686.527652265625,623.9446725,688.000002265625,620.9999725C695.932922265625,619.8034325,695.932922265625,619.8034325,703.949702265625,619.2514325L707.312502265625,618.9999725C717.868962265625,618.1980325,728.425902265625,617.5191325000001,739.000002265625,616.9999725C740.458252265625,620.1549425000001,742.064272265625,623.1106225,744.000002265625,625.9999725C750.115962265625,632.4757425,757.941342265625,634.7068825,766.640622265625,635.2109025C778.466732265625,635.3346225,788.224792265625,633.3928525,797.000002265625,624.9999725C803.263242265625,616.7413625,803.234372265625,604.9634125,803.175782265625,595.0585625L803.125002265625,591.7499725C803.093932265625,587.8331025,803.059022265625,583.9165925,803.000002265625,579.9999725L801.801762265625,581.6401025L800.203122265625,583.8046525C793.710872265625,592.6363225,784.526302265625,598.5531925,774.312502265625,602.3749725C756.603392265625,607.3301725,737.540042265625,604.5799825,721.354492265625,596.2961124999999C704.906192265625,587.2674825,694.001462265625,571.6498725,688.585942265625,553.9823925000001L688.000002265625,551.9999725C685.090272265625,542.1686725,684.745542265625,532.5027725,684.694032265625,522.3213225L684.687502265625,520.2499725C684.595822265625,498.8787425,688.433902265625,473.8497725,704.105472265625,457.7890775ZM803.000002265625,510.0000325C801.422852265625,499.7547725,797.512082265625,489.8807025,789.117192265625,483.4023625C776.223572265625,474.8621225,763.335752265625,476.50161249999996,751.000002265625,485.0000225C743.291502265625,492.1946225,740.533142265625,502.8087325,739.281252265625,512.9922225L739.000002265625,516.0000325C737.737732265625,529.0283525,741.039912265625,542.9198625,749.125002265625,553.1875325C753.549442265625,557.9100225,758.361142265625,561.4858725,764.964842265625,562.2178025000001C776.224422265625,562.8427425,783.912722265625,561.0963425,792.687502265625,553.7500325C800.294192265625,544.7042524999999,803.097172265625,534.8406325,803.297612265625,523.1748325L803.312502265625,520.3750325C803.334352265625,516.9006325,803.280272265625,513.4641425,803.000002265625,510.0000325Z" fill-rule="evenodd" fill="#FFFFFF" fill-opacity="1" style="mix-blend-mode:passthrough"/></g></g></svg>