<svg xmlns="http://www.w3.org/2000/svg" xmlns:xlink="http://www.w3.org/1999/xlink" fill="none" version="1.1" width="24" height="24" viewBox="0 0 24 24"><g><path d="M12,2C10.1243,2,8.54878,2.099199198,7.2500701,2.3878250100000002C5.9400201,2.67897397,4.85116,3.176,4.0135801,4.0135801C3.176,4.85116,2.67897397,5.9400201,2.3878250100000002,7.2500701C2.099199198,8.54878,2,10.1243,2,12C2,13.8757,2.099199198,15.4512,2.3878250100000002,16.7499C2.67897397,18.059999,3.176,19.1488,4.0135801,19.986401C4.85116,20.823999,5.9400201,21.320999,7.2500701,21.6122C8.54878,21.900801,10.1243,22,12,22C13.8757,22,15.4512,21.900801,16.7499,21.6122C18.059999,21.320999,19.1488,20.823999,19.986401,19.986401C20.823999,19.1488,21.320999,18.059999,21.6122,16.7499C21.900801,15.4512,22,13.8757,22,12C22,10.1243,21.900801,8.54878,21.6122,7.2500701C21.320999,5.9400201,20.823999,4.85116,19.986401,4.0135801C19.1488,3.176,18.059999,2.67897397,16.7499,2.3878250100000002C15.4512,2.099199198,13.8757,2,12,2ZM12,7C12.552285,7,13,7.4477201,13,8L13,13C13,13.552285,12.552285,14,12,14C11.4477148,14,11,13.552285,11,13L11,8C11,7.4477201,11.4477148,7,12,7ZM12,14.98877C12.552285,14.98877,13,15.436484,13,15.98877L13,16.000000999999997C13,16.552284999999998,12.552285,17,12,17C11.4477148,17,11,16.552284999999998,11,16.000000999999997L11,15.98877C11,15.436484,11.4477148,14.98877,12,14.98877Z" fill-rule="evenodd" fill="#FF0000" fill-opacity="1"/></g></svg>