<svg xmlns="http://www.w3.org/2000/svg" xmlns:xlink="http://www.w3.org/1999/xlink" fill="none" version="1.1" width="24" height="24" viewBox="0 0 24 24"><path d="M10,8C10,4.68629,12.68629,2,16,2C19.3137102,2,22,4.68629,22,8C22,11.3137102,19.3137102,14,16,14C12.68629,14,10,11.3137102,10,8C10,8,10,8,10,8Z" fill-rule="evenodd" fill="#6D58F0" fill-opacity="1"/><path d="M2,15.5C2,13.01472,4.0147200000000005,11,6.5,11C8.98528,11,11,13.01472,11,15.5C11,17.98528,8.98528,20,6.5,20C4.0147200000000005,20,2,17.98528,2,15.5C2,15.5,2,15.5,2,15.5Z" fill-rule="evenodd" fill="#5C9BF6" fill-opacity="1"/><path d="M13,18.5C13,16.567,14.567,15,16.5,15C18.4330001,15,20,16.567,20,18.5C20,20.4330001,18.4330001,22,16.5,22C14.567,22,13,20.4330001,13,18.5C13,18.5,13,18.5,13,18.5Z" fill-rule="evenodd" fill="#07C060" fill-opacity="1"/></svg>